<?xml version="1.0" encoding="UTF-8"?>
<svg id="Layer_1" xmlns="http://www.w3.org/2000/svg" version="1.1" viewBox="0 0 1231.31 619.43">
  <!-- Generator: Adobe Illustrator 29.8.1, SVG Export Plug-In . SVG Version: 2.1.1 Build 2)  -->
  <defs>
    <style>
      .st0 {
        fill: none;
        stroke: #0077c0;
        stroke-miterlimit: 10;
      }

      .st1 {
        fill: #0077c0;
      }
    </style>
  </defs>
  <path class="st1" d="M810.89,209.05v-4h-196.84v-126.86c15,.21,29.62,2.96,43.55,8.21l-7.78,5.05,27.77,2.73-16.86-20.58-.82,9.41c-14.66-5.64-30.05-8.61-45.87-8.82v-35.73h-4v35.74c-71.64,1.15-129.7,59.21-130.84,130.86h-66.78v4h66.78c.98,71.78,59.1,130,130.84,131.16v35.44h4v-35.43c29.72-.39,57.66-10.35,80.92-28.86,23.03-18.33,39.53-44.09,46.47-72.53l-3.89-.95c-6.73,27.58-22.74,52.57-45.07,70.35-22.54,17.94-49.63,27.58-78.43,27.97v-127.15h196.84ZM610.06,78.2v126.86h-126.84c1.14-69.44,57.4-125.71,126.84-126.86ZM610.06,336.21c-69.54-1.15-125.86-57.58-126.84-127.16h126.84v127.16Z"/>
  <polygon points="981.13 273.25 1135.98 273.25 1125.6 339.96 1084.96 337.25 1064.2 475.74 989.7 475.74 1012.5 337.25 970.85 338.27 981.13 273.25"/>
  <path d="M87.35,456.1s14.56-15.58,36.57-61.96c0,0,2.37,28.44,22.35,19.64,0,0,7.79-3.72,8.8-14.9l20.32-125.62h72.46l-17.61,110.72s-.34,83.63-68.06,92.44c0,0-39.96,10.16-74.83-20.32Z"/>
  <polygon points="822.23 273.25 977.08 273.25 966.7 339.96 926.06 337.25 905.3 475.74 830.8 475.74 853.6 337.25 811.96 338.27 822.23 273.25"/>
  <polygon points="257.66 273.25 458.12 273.25 464.89 395.49 511.62 273.25 569.18 273.25 577.3 395.49 623.35 273.25 818.39 273.25 809.59 328.78 747.62 328.78 744.91 347.75 801.12 347.75 792.99 400.23 735.43 400.23 734.75 420.88 797.73 420.88 788.25 475.74 651.46 475.74 672.79 324.38 597.62 475.74 532.61 475.74 525.84 365.02 483.62 475.74 420.42 475.74 387.69 307.96 385.99 329.12 323.35 328.78 319.97 348.09 376.51 348.09 368.39 401.58 312.29 400.23 308.23 420.55 372.56 419.87 364.89 475.74 225.83 475.74 257.66 273.25"/>
  <g>
    <path class="st1" d="M126.7,533.64l-7.61,13.68h-9.78l24.89-43.49h11.41l25,43.49h-10.11l-7.83-13.68h-25.98ZM150.72,529.25l-7.17-12.52c-1.63-2.84-2.72-5.42-3.8-7.94h-.22c-1.09,2.58-2.28,5.23-3.7,7.87l-7.17,12.58h22.06Z"/>
    <path class="st1" d="M225.82,503.82v25.75c0,9.74,7.28,13.87,17.06,13.87,10.87,0,17.83-4.26,17.83-13.87v-25.75h9.56v25.36c0,13.36-11.85,18.84-27.72,18.84-15,0-26.3-5.1-26.3-18.58v-25.62h9.56Z"/>
    <path class="st1" d="M338.63,508.6h-22.28v-4.78h54.24v4.78h-22.39v38.72h-9.56v-38.72Z"/>
    <path class="st1" d="M476.45,525.12c0,14.97-15.33,22.91-34.02,22.91s-32.93-8.91-32.93-22.07c0-13.81,14.46-22.84,34.02-22.84s32.93,9.1,32.93,22ZM419.6,525.83c0,9.29,8.48,17.62,23.37,17.62s23.48-8.2,23.48-18.07c0-8.65-7.61-17.68-23.37-17.68s-23.48,8.58-23.48,18.13Z"/>
    <path class="st1" d="M588.5,528.22c-.54-6.07-1.2-13.36-1.09-18.78h-.33c-2.5,5.1-5.54,10.52-9.24,16.52l-12.93,21.1h-7.17l-11.85-20.71c-3.48-6.13-6.41-11.75-8.48-16.91h-.22c-.22,5.42-.76,12.71-1.41,19.23l-1.96,18.65h-9.02l5.11-43.49h12.06l12.5,21.04c3.04,5.36,5.54,10.13,7.39,14.65h.33c1.85-4.39,4.46-9.16,7.72-14.65l13.04-21.04h12.06l4.57,43.49h-9.24l-1.85-19.1Z"/>
    <path class="st1" d="M662.94,533.64l-7.61,13.68h-9.78l24.89-43.49h11.41l25,43.49h-10.11l-7.83-13.68h-25.98ZM686.96,529.25l-7.17-12.52c-1.63-2.84-2.72-5.42-3.8-7.94h-.22c-1.09,2.58-2.28,5.23-3.7,7.87l-7.17,12.58h22.06Z"/>
    <path class="st1" d="M761.19,508.6h-22.28v-4.78h54.24v4.78h-22.39v38.72h-9.56v-38.72Z"/>
    <path class="st1" d="M848.79,503.82v43.49h-9.46v-43.49h9.46Z"/>
    <path class="st1" d="M965.95,525.12c0,14.97-15.33,22.91-34.02,22.91s-32.93-8.91-32.93-22.07c0-13.81,14.46-22.84,34.02-22.84s32.93,9.1,32.93,22ZM909.11,525.83c0,9.29,8.48,17.62,23.37,17.62s23.48-8.2,23.48-18.07c0-8.65-7.61-17.68-23.37-17.68s-23.48,8.58-23.48,18.13Z"/>
    <path class="st1" d="M1016.27,547.32v-43.49h10.33l23.48,22c5.43,5.1,9.67,9.68,13.15,14.13l.22-.06c-.87-5.81-1.09-11.1-1.09-17.88v-18.2h8.91v43.49h-9.56l-23.26-22.07c-5.11-4.84-10-9.81-13.69-14.52l-.33.06c.54,5.48.76,10.71.76,17.94v18.58h-8.91Z"/>
  </g>
  <path class="st0" d="M723.01,745.85"/>
  <path class="st0" d="M2002.63,91.4"/>
</svg>
